<?xml version="1.0" standalone="no"?>
<!DOCTYPE svg PUBLIC "-//W3C//DTD SVG 20010904//EN"
 "http://www.w3.org/TR/2001/REC-SVG-20010904/DTD/svg10.dtd">
<svg version="1.0" xmlns="http://www.w3.org/2000/svg"
 width="221.000000pt" height="261.000000pt" viewBox="0 0 221.000000 261.000000"
 preserveAspectRatio="xMidYMid meet">

<g transform="translate(0.000000,261.000000) scale(0.100000,-0.100000)"
fill="#000000" stroke="none">
<path d="M1063 2600 c-19 -8 -23 -17 -23 -50 l0 -40 -25 16 c-36 24 -55 5 -55
-56 0 -48 0 -48 -38 -55 -59 -10 -137 -59 -173 -110 -21 -29 -40 -45 -54 -45
-64 0 -60 -109 6 -157 9 -7 19 -25 22 -41 8 -39 64 -111 110 -141 43 -28 37
-44 -22 -62 -47 -14 -81 -1 -116 45 l-27 35 21 27 c27 34 27 64 1 64 -10 0
-23 7 -28 16 -8 14 -12 14 -33 3 -37 -22 -59 -52 -56 -79 2 -19 9 -26 40 -32
25 -5 51 -22 80 -53 39 -41 48 -45 90 -45 25 0 49 5 52 10 3 6 10 10 15 10 4
0 -9 -51 -31 -112 -45 -129 -49 -172 -19 -188 26 -14 17 -28 -34 -51 -55 -25
-60 -24 -79 15 -17 36 -52 55 -69 38 -13 -13 17 -69 47 -87 16 -11 29 -10 73
5 30 10 66 29 80 43 24 22 37 26 111 28 l83 3 20 -59 c16 -52 17 -67 7 -113
-9 -39 -9 -56 -1 -64 29 -29 72 67 43 97 -11 12 -51 121 -51 138 0 7 20 18 45
25 55 15 64 32 36 71 -29 40 -78 148 -86 190 l-7 33 38 -26 c41 -27 99 -34
134 -16 14 7 27 5 48 -7 30 -17 31 -17 57 9 15 15 24 31 21 37 -4 5 -3 12 2
15 4 2 6 21 4 41 -4 34 -6 37 -32 32 -15 -3 -32 -1 -38 5 -23 23 -42 0 -42
-51 0 -59 -14 -71 -82 -71 -30 0 -52 7 -73 24 l-30 24 30 11 c49 18 74 33 115
68 21 18 49 33 63 33 13 0 36 10 51 21 22 17 27 28 24 58 -2 26 -9 39 -25 46
-15 6 -23 19 -23 35 -1 36 -24 95 -54 139 -25 36 -26 39 -11 74 25 60 21 77
-20 77 l-34 0 20 35 c36 61 5 137 -38 94 -8 -8 -13 -5 -18 10 -7 23 -10 24
-42 11z m39 -41 l11 -32 15 28 c14 27 15 28 28 10 24 -32 -5 -100 -54 -126
-33 -18 -45 -1 -50 72 -4 54 -3 61 12 56 10 -4 16 -1 16 8 0 25 10 17 22 -16z
m-60 -100 c8 -29 8 -42 -1 -52 -9 -12 -4 -18 26 -31 86 -39 116 -62 145 -113
37 -65 44 -138 13 -138 -13 0 -27 13 -40 40 -11 22 -21 42 -23 45 -2 3 -8 -3
-13 -13 -15 -26 -26 -21 -56 26 -15 23 -28 44 -30 46 -1 2 -12 -8 -24 -22 -12
-16 -30 -27 -44 -27 -25 0 -55 33 -55 61 0 14 -7 11 -29 -12 -35 -34 -51 -37
-58 -9 -6 24 -21 26 -30 5 -3 -9 -18 -22 -33 -30 -24 -13 -30 -13 -40 0 -26
31 25 102 101 140 34 18 66 25 111 26 35 1 53 4 41 6 -28 5 -41 62 -24 100 11
25 12 25 31 8 11 -10 25 -35 32 -56z m158 -29 c0 -18 -27 -77 -39 -84 -17 -11
-61 24 -61 49 0 16 8 26 28 33 36 14 72 14 72 2z m-112 -28 c2 -7 -3 -12 -12
-12 -9 0 -16 7 -16 16 0 17 22 14 28 -4z m-93 -192 c13 0 33 10 45 22 11 12
21 20 23 17 2 -2 14 -21 26 -41 23 -39 39 -46 58 -27 7 7 17 0 32 -26 12 -21
30 -39 41 -42 11 -3 20 -10 20 -16 0 -6 6 -2 14 8 12 16 16 17 30 6 36 -30 1
-101 -50 -101 -24 0 -24 1 -9 30 25 48 17 47 -14 -1 -56 -90 -144 -139 -247
-139 -138 0 -241 109 -246 260 -2 64 -2 64 -5 13 -5 -60 -15 -67 -38 -23 -17
32 -19 68 -6 89 8 12 15 11 48 -4 47 -23 69 -22 97 4 18 16 23 17 34 5 17 -19
25 -18 53 5 l24 20 23 -30 c14 -17 33 -29 47 -29z m-335 -197 c0 -12 3 -13 14
-4 24 20 27 -5 5 -33 -15 -19 -30 -26 -55 -26 -30 0 -34 3 -34 26 0 14 4 23
10 19 6 -3 10 1 10 10 0 11 5 15 15 11 9 -3 15 0 15 10 0 8 5 12 10 9 6 -3 10
-13 10 -22z m586 -67 c4 -12 12 -13 31 -5 30 11 41 5 24 -15 -9 -11 -9 -15 1
-19 10 -4 10 -7 -1 -15 -7 -5 -10 -15 -7 -21 9 -14 -17 -41 -38 -41 -22 0 -36
32 -36 84 0 44 15 62 26 32z m-226 -141 c14 -44 32 -90 39 -103 16 -30 9 -39
-51 -57 -89 -26 -198 -16 -198 19 0 21 27 100 57 169 l26 58 50 -3 50 -3 27
-80z m80 -164 c5 -11 10 -24 10 -30 0 -28 -222 -62 -285 -43 -25 7 -30 14 -30
38 0 24 3 28 20 24 42 -11 181 -3 220 12 53 21 53 21 65 -1z m-430 -110 c5
-11 10 -28 10 -38 -1 -15 -5 -13 -25 10 -14 15 -25 32 -25 38 0 17 29 9 40
-10z m402 -176 c-17 -36 -34 -23 -20 16 7 21 14 27 21 20 7 -7 7 -18 -1 -36z"/>
<path d="M833 2128 c2 -7 10 -13 17 -13 7 0 15 6 18 13 2 7 -5 12 -18 12 -13
0 -20 -5 -17 -12z"/>
<path d="M1060 2090 c-12 -7 -12 -12 -2 -22 9 -9 15 -9 24 0 16 16 -2 34 -22
22z"/>
<path d="M913 2031 c4 -49 68 -54 74 -5 2 14 0 13 -7 -4 -13 -31 -51 -26 -62
8 -7 25 -7 25 -5 1z"/>
<path d="M1640 1926 c-61 -16 -109 -47 -160 -102 -39 -42 -90 -133 -90 -161 0
-8 -13 -13 -30 -13 -19 0 -40 -9 -55 -25 -43 -42 -29 -111 38 -185 l28 -31
-45 -43 c-25 -24 -48 -56 -52 -70 -7 -28 9 -56 32 -56 7 0 14 -14 16 -32 2
-23 9 -34 23 -37 11 -2 26 -12 33 -22 25 -36 88 -19 134 36 35 41 18 -9 -18
-55 -84 -107 -100 -123 -141 -147 l-44 -25 -23 25 c-26 28 -62 41 -93 35 -13
-3 -18 -13 -18 -40 0 -20 -3 -40 -7 -44 -11 -10 -10 -44 1 -44 5 0 7 -9 4 -19
-6 -22 36 -45 99 -55 31 -6 39 -3 48 15 7 13 9 38 5 64 -5 39 -4 44 16 50 12
4 51 37 87 73 36 37 60 58 55 47 -6 -11 -32 -78 -58 -149 -50 -139 -52 -169
-10 -188 l24 -11 -37 -44 c-20 -24 -52 -54 -71 -65 -31 -20 -34 -20 -43 -4 -5
9 -23 33 -40 52 -55 62 -102 27 -58 -44 44 -72 114 -68 194 11 29 29 59 62 67
74 14 21 17 21 74 7 33 -7 86 -14 117 -14 64 0 61 4 72 -95 3 -27 8 -60 12
-72 6 -21 3 -23 -34 -23 -71 0 -103 -59 -45 -81 29 -11 94 4 117 26 8 8 20 15
27 15 8 0 5 9 -8 22 -26 29 -40 73 -49 148 l-7 60 45 0 c63 0 108 17 108 42 0
10 -16 84 -35 162 -40 165 -41 169 -18 136 9 -14 41 -55 71 -93 53 -65 54 -68
38 -92 -26 -39 -21 -71 15 -89 17 -9 36 -13 42 -9 5 3 24 6 41 7 25 1 31 5 30
23 0 17 5 22 20 20 18 -2 21 4 21 35 0 20 3 40 8 44 4 4 7 16 7 27 0 17 -6 18
-57 14 -32 -2 -68 -7 -79 -11 -18 -7 -31 4 -83 65 -33 40 -61 76 -61 80 0 4
14 2 31 -4 28 -11 33 -10 50 12 18 22 22 23 45 10 24 -12 28 -12 44 9 10 12
20 27 22 33 2 7 12 7 30 -2 23 -10 31 -9 53 5 30 19 27 47 -12 108 -12 21 -23
39 -23 41 0 2 18 9 39 15 21 7 46 23 55 37 30 45 15 117 -29 137 -22 10 -25
17 -25 67 0 73 -20 144 -61 221 -44 83 -115 140 -220 174 -86 28 -130 31 -199
12z m171 -22 c123 -37 201 -102 251 -212 27 -58 32 -79 32 -152 1 -84 1 -85
-24 -85 -22 0 -26 6 -37 55 -14 63 -42 93 -103 111 -34 11 -40 16 -40 41 0 22
-5 28 -21 28 -36 0 -77 51 -84 106 -11 79 -14 82 -40 35 -46 -79 -68 -103
-118 -127 -38 -17 -61 -22 -92 -17 -26 3 -54 -1 -79 -11 -22 -9 -41 -14 -43
-12 -11 11 40 100 83 147 92 97 196 128 315 93z m-41 -114 c0 -12 9 -39 20
-61 15 -29 29 -41 50 -46 25 -4 30 -11 30 -33 0 -21 -6 -29 -25 -34 -13 -3
-40 -26 -60 -49 -36 -43 -36 -43 -79 -33 -41 9 -44 13 -49 49 -3 21 -15 50
-28 63 -12 13 -21 25 -18 27 2 2 23 15 46 30 24 15 55 45 69 67 29 44 44 51
44 20z m-242 -132 c-10 -28 -108 -54 -108 -28 0 5 12 16 28 24 34 19 85 21 80
4z m103 -40 c14 -27 5 -112 -16 -144 -8 -13 -27 -31 -41 -41 -78 -50 -190 27
-182 125 3 36 5 37 49 43 53 8 77 19 103 48 17 19 21 19 47 6 16 -9 34 -25 40
-37z m-255 -80 c1 -49 6 -93 10 -99 4 -7 1 -10 -7 -7 -24 7 -79 98 -79 131 0
37 27 69 53 65 18 -3 20 -12 23 -90z m523 26 c14 -25 36 -54 50 -65 14 -11 37
-28 50 -38 l24 -18 -21 -34 c-43 -70 -127 -90 -188 -44 -55 42 -68 122 -28
182 13 21 70 63 84 63 3 0 16 -21 29 -46z m78 20 c22 -14 52 -89 40 -100 -17
-18 -117 79 -117 114 0 17 42 9 77 -14z m-251 -70 c18 -5 22 -16 27 -61 15
-143 181 -177 263 -53 44 67 82 44 46 -27 -74 -143 -320 -240 -473 -188 -55
19 -117 81 -152 150 -30 60 -43 115 -28 115 6 0 11 -4 11 -8 0 -15 59 -42 93
-42 44 0 97 36 122 83 20 38 40 45 91 31z m428 -96 c42 -59 -2 -128 -80 -128
-42 0 -56 11 -34 25 6 4 24 33 40 66 32 63 50 72 74 37z m-750 -52 c3 -14 26
-54 51 -91 36 -54 43 -71 35 -86 -22 -40 -82 -52 -100 -20 -5 11 -20 21 -32
23 -23 3 -25 9 -13 39 5 12 -2 19 -24 27 -42 15 -39 37 13 88 50 50 61 54 70
20z m637 -96 c15 0 69 -92 69 -117 0 -31 -24 -39 -55 -19 -32 21 -45 20 -45
-2 0 -10 -7 -27 -15 -38 -14 -18 -16 -18 -29 -1 -18 23 -27 22 -51 -9 -17 -22
-24 -24 -47 -15 -26 10 -30 17 -42 73 -6 25 -2 29 56 57 35 17 77 42 93 55 17
14 36 23 43 21 8 -3 18 -5 23 -5z m-424 -130 c31 -35 46 -37 72 -11 22 22 50
29 69 18 18 -12 15 -34 -9 -67 -29 -39 -20 -75 25 -94 27 -11 35 -22 45 -59
14 -58 15 -54 -14 -61 -28 -7 -44 -50 -28 -75 6 -9 25 -18 44 -21 25 -4 34
-10 34 -25 0 -23 -29 -33 -105 -34 -48 -1 -57 2 -65 21 -6 13 -22 27 -37 32
-24 8 -32 6 -57 -18 -28 -27 -30 -28 -88 -16 -92 18 -93 19 -93 51 0 25 3 29
19 24 12 -4 29 3 46 17 22 19 25 28 19 52 -4 16 -15 31 -26 34 -21 5 -20 25 8
90 12 28 18 33 37 28 36 -9 67 19 67 58 0 19 -7 39 -15 46 -8 7 -15 19 -15 26
0 24 39 15 67 -16z m54 10 c5 0 9 -5 9 -11 0 -15 -43 -7 -48 10 -3 10 0 12 12
8 10 -4 22 -7 27 -7z m139 -30 c0 -13 -1 -13 -10 0 -5 8 -10 22 -10 30 0 13 1
13 10 0 5 -8 10 -22 10 -30z m-244 -25 c7 -29 -10 -55 -37 -55 -27 0 -32 16
-14 50 19 37 42 39 51 5z m223 -52 c12 -43 10 -47 -18 -38 -15 4 -21 15 -21
34 0 53 25 56 39 4z m-519 -73 c28 -30 45 -94 34 -124 -7 -18 -20 -21 -29 -6
-4 6 -15 8 -26 5 -13 -5 -19 -2 -19 10 0 12 -6 15 -20 10 -22 -7 -28 10 -7 19
8 3 7 8 -5 16 -24 15 -23 27 3 35 19 6 19 8 5 24 -23 26 -20 41 10 41 16 0 37
-11 54 -30z m830 -75 c0 -9 -12 -20 -27 -26 l-26 -10 21 -15 c31 -21 28 -36
-4 -23 -33 12 -39 7 -25 -19 6 -12 11 -23 11 -26 0 -12 -28 -6 -33 7 -4 10 -7
10 -18 0 -19 -19 -29 -16 -29 10 -1 21 -1 22 -15 3 -14 -18 -15 -18 -15 -2 0
9 7 31 16 47 25 49 144 93 144 54z m-626 -18 c14 -22 -3 -51 -33 -55 -24 -4
-27 11 -11 53 11 29 27 29 44 2z m366 -53 c17 -43 -12 -61 -44 -28 -12 12 -13
20 -6 35 15 27 39 24 50 -7z m-186 -80 c33 -13 17 -34 -24 -34 -41 0 -49 7
-28 28 13 13 28 15 52 6z m-394 -150 c0 -13 -5 -12 -29 5 -28 20 -45 54 -33
66 9 9 62 -52 62 -71z m484 -123 c7 -11 -38 -31 -69 -31 -27 0 -32 9 -13 28
14 14 74 16 82 3z"/>
<path d="M1517 1573 c-11 -10 -8 -41 4 -49 16 -9 43 21 36 40 -7 16 -28 21
-40 9z"/>
<path d="M1840 1475 c0 -22 4 -26 23 -23 14 2 22 10 22 23 0 13 -8 21 -22 23
-19 3 -23 -1 -23 -23z"/>
<path d="M1614 1342 c9 -72 55 -101 103 -67 23 16 42 81 27 94 -5 5 -38 11
-73 15 l-64 6 7 -48z m94 22 c45 -12 17 -84 -32 -84 -29 0 -42 15 -51 58 -6
31 -6 32 27 32 18 0 43 -3 56 -6z"/>
<path d="M1596 964 c-9 -8 -16 -26 -16 -39 0 -56 71 -73 99 -24 13 24 13 29
-2 53 -20 30 -57 35 -81 10z m62 -6 c19 -19 14 -56 -8 -68 -16 -8 -24 -6 -40
10 -11 11 -18 26 -14 33 23 39 41 46 62 25z"/>
<path d="M430 1463 c-24 -9 -52 -36 -61 -60 -6 -15 -17 -23 -32 -23 -36 0 -77
-37 -77 -69 0 -15 5 -32 11 -38 8 -8 8 -17 -1 -32 -6 -12 -8 -31 -5 -41 9 -27
-3 -44 -20 -30 -36 30 -83 -31 -71 -92 3 -18 15 -41 25 -53 12 -13 20 -41 24
-81 2 -33 14 -78 25 -100 24 -46 89 -114 112 -115 9 0 10 -3 3 -5 -21 -9 -87
33 -138 88 -91 95 -89 92 -71 127 32 60 13 106 -33 82 -13 -7 -22 -8 -26 -1
-10 16 -45 12 -45 -6 0 -9 -6 -22 -14 -28 -18 -14 -33 -86 -18 -86 6 0 21 -10
32 -22 20 -22 22 -22 50 -6 29 16 29 16 57 -20 47 -62 111 -117 163 -142 58
-27 60 -34 35 -165 -9 -44 -15 -100 -14 -125 1 -28 -7 -63 -20 -93 l-22 -48
21 -17 c19 -16 20 -19 5 -40 -9 -12 -22 -22 -30 -22 -13 0 -57 45 -85 89 -32
48 -95 -12 -88 -82 4 -44 46 -50 77 -11 l21 27 25 -23 c31 -29 73 -29 97 0 10
12 18 28 18 36 0 8 10 14 23 14 18 0 28 10 42 41 15 32 23 39 39 35 12 -3 45
-8 74 -12 43 -5 54 -11 65 -33 8 -17 22 -27 39 -29 19 -2 28 -11 33 -30 10
-41 34 -62 71 -62 22 0 38 7 48 22 l15 21 10 -27 c20 -51 71 -41 71 14 0 31
-43 82 -62 74 -7 -3 -22 -19 -33 -36 -30 -47 -50 -56 -74 -34 -27 25 -36 67
-17 81 14 10 12 19 -14 69 -17 32 -28 62 -25 67 6 8 -13 114 -38 219 l-13 55
90 0 c82 0 97 3 151 31 58 30 61 31 92 16 26 -12 35 -13 47 -2 9 7 13 16 10
21 -3 5 1 12 9 15 9 3 14 20 14 44 0 44 -32 83 -63 79 -11 -1 -27 1 -36 5 -32
14 -41 -3 -35 -71 l5 -64 -57 -25 c-61 -28 -135 -40 -177 -30 l-27 7 24 16
c13 9 40 31 59 49 19 18 54 37 78 44 49 13 77 47 68 85 -5 18 -1 27 14 35 21
11 26 45 10 70 -7 11 -4 19 12 32 22 16 22 18 6 51 -10 21 -13 39 -7 48 15 24
10 49 -15 72 -17 16 -23 30 -19 48 4 20 -2 32 -27 52 -17 15 -38 27 -46 27 -8
0 -14 7 -14 15 0 30 -47 65 -85 65 -22 0 -47 8 -62 20 -28 22 -67 26 -108 10
-20 -8 -30 -7 -41 5 -16 16 -28 17 -54 8z m-80 -312 c0 -30 36 -51 71 -41 21
6 29 5 29 -4 0 -24 38 -49 64 -42 19 5 25 1 30 -18 6 -24 47 -43 66 -31 6 4
10 -3 10 -15 0 -40 18 -60 54 -60 19 0 39 -7 46 -15 7 -8 26 -15 42 -15 l29 0
-23 -41 c-34 -62 -118 -134 -172 -149 -124 -35 -278 27 -333 134 -34 65 -27
232 13 294 19 29 74 32 74 3z m-108 -3 c4 -11 -2 -42 -19 -98 -6 -22 -33 16
-33 48 0 46 41 85 52 50z m-129 -178 c3 0 7 9 10 20 6 24 27 27 27 5 0 -9 -7
-30 -16 -48 -29 -58 -64 -86 -64 -52 0 9 -9 15 -21 15 -17 0 -19 3 -10 14 6 7
8 21 5 31 -6 14 -3 16 16 10 21 -7 22 -5 16 21 l-6 29 19 -22 c11 -13 21 -23
24 -23z m721 -66 c20 -8 20 -23 -1 -46 -15 -16 -53 -26 -53 -13 0 9 30 65 34
65 3 0 11 -3 20 -6z m96 -50 c0 -19 16 -18 24 1 3 8 10 15 15 15 6 0 8 -7 5
-15 -4 -11 1 -15 17 -15 23 -1 23 -1 5 -15 -16 -12 -17 -17 -6 -30 7 -9 8 -15
2 -15 -6 0 -12 -8 -14 -19 -2 -15 -7 -17 -26 -10 -28 11 -56 73 -47 106 6 25
25 23 25 -3z m-405 -160 c54 -2 71 -6 73 -18 3 -14 -10 -16 -80 -16 -106 0
-127 6 -120 32 4 16 10 18 31 12 14 -4 58 -8 96 -10z m83 -66 c2 -12 -9 -17
-43 -23 -53 -7 -173 3 -181 16 -15 25 12 31 115 26 85 -3 107 -7 109 -19z
m-70 -38 c80 0 82 -1 82 -24 0 -20 -6 -24 -46 -30 -66 -9 -113 -7 -156 5 -31
8 -38 14 -38 36 0 24 2 25 38 19 20 -3 74 -6 120 -6z m100 -98 c4 -34 -13 -42
-93 -42 -53 0 -174 16 -182 23 -2 3 -1 15 2 28 6 24 7 24 138 23 l132 -2 3
-30z m-60 -55 c39 1 72 -2 72 -6 0 -30 -88 -45 -206 -36 -80 7 -84 8 -84 32 0
24 0 24 73 16 39 -4 105 -7 145 -6z m92 -97 c21 -42 21 -45 4 -57 -28 -20 -45
-16 -57 16 -10 26 -16 29 -76 35 -36 4 -75 9 -86 12 -16 4 -25 -4 -42 -40 -20
-41 -24 -44 -50 -37 -35 9 -39 30 -15 78 l20 38 140 0 140 0 22 -45z m-472
-83 c5 -23 -24 -67 -43 -67 -18 0 -19 29 -3 65 13 29 41 30 46 2z m664 -41
c12 -28 3 -65 -12 -50 -5 5 -13 24 -16 42 -8 39 11 44 28 8z"/>
<path d="M326 1023 c-4 -9 -2 -21 3 -26 15 -15 41 0 41 23 0 25 -35 28 -44 3z"/>
<path d="M387 933 c-12 -12 -7 -73 8 -103 18 -34 56 -47 90 -32 28 13 67 83
56 100 -4 6 -36 18 -71 26 -75 18 -75 18 -83 9z m121 -34 c27 -10 27 -15 2
-56 -15 -25 -27 -33 -49 -33 -41 0 -61 24 -61 72 l0 40 43 -7 c23 -4 52 -11
65 -16z"/>
<path d="M600 922 c0 -24 8 -32 26 -25 22 8 17 43 -6 43 -13 0 -20 -7 -20 -18z"/>
<path d="M1735 410 c-16 -7 -17 -9 -3 -9 9 -1 20 4 23 9 7 11 7 11 -20 0z"/>
<path d="M1432 328 c7 -4 40 -7 73 -7 73 1 62 6 -23 11 -34 3 -57 1 -50 -4z"/>
<path d="M295 56 c-50 -7 -110 -22 -135 -34 l-45 -21 390 0 390 0 -44 20 c-25
11 -63 24 -85 30 -66 16 -369 20 -471 5z"/>
</g>
</svg>
